<svg xmlns="http://www.w3.org/2000/svg" width="1100" height="920" viewBox="0 0 275 230" version="1"><path d="M166 29c6 15 13 33 14 47 0 9 2 4-1 10-5 6-5 0-11-2 3-15-5-29-9-42-1-8-9-18-7-22-29 6-58 12-87 13-10 1-24 9-24-2 3-3 11-8 15-8 7-2 14 1 21 0l34-4c12 0 24-6 35-6 15-4 17 1 20 16z" fill="#cec9cb"/><path d="M44 33c-2 23 8 70 26 81 36 7 65-22 96-29 4-3 5-12 3-17-1-11-11-43-17-49-35 12-71 10-108 14z" fill="#e7e7e7"/><path d="M41 33l1 11c-1 8 3 16 4 24l7 18 3 14 5 9 4 3-3 3-4-1c-2-3-2-6-3-10-4-7-6-14-8-20l-7-26c-1-8-3-15-2-23l3-2z" fill="#4e63f7"/><path d="M152 19c-1 2 2-1-1 2l-14 3-33 8c-17 2-36 2-51 0 2-4 9-2 9-2l26-1c14 0 27-3 39-6 15-4 23-3 25-4z" fill="#6b3a71"/><path d="M168 122h1-1z" fill="#cdcacb"/><path d="M167 130v1-1z" fill="#9d9a36"/><path d="M165 136h1v1h-1v-1z" fill="#cdcacb"/><path d="M73 141h-1 1z" fill="#6a686a"/><path d="M108 141l1 2 3 1a59 59 0 0 0-5 8 15 15 0 0 0-5-3 29 29 0 0 1-7-5l6-1 7-2z" fill="#fff"/><path d="M206 141v1h-1v-1z" fill="#6a686a"/><path d="M180 142h9l-5 4h-2l-2-4z" fill="#cdcacb"/><path d="M141 144v1h-1l1-1z" fill="#181e1b"/><path d="M92 145c0 3 4 6 6 7v1l-2 1-4-3-1-6z" fill="#9b9494"/><path d="M102 149l5 3v1l-3-1h-3l-1-2 2-1z" fill="#888d92"/><path d="M98 152h1l-1 1v-1z" fill="#6778eb"/><path d="M166 85c-14 2-24 4-35 8-20 5-35 13-54 20 2 11 3 9 3 18 2 8 8 19 12 26 10 11 8 32 29 35 42 2 145-70 22 5 33-15 63-42 93-52-6-11-18-22-24-30-7-8-14-20-24-23-3 0-6-4-9-5-6-4-7-12-13-2z" fill="#cdcacb"/><path d="M179 86c-2 3 0 0 0 3l9 3c18 16 39 41 47 52-34 11-66 31-96 44-33 11-31-6-48-34-5-7-9-15-11-23 1-3-2-11 0-13-4-10-9 1-7 8-3 12 7 20 10 29 11 14 20 35 29 46 18 14 44-6 60-13 18-11 36-17 54-24 9-3 15-7 15-17-6-10-16-26-24-33-9-8-17-20-27-26l-11-2zm-73-67c-19 3-41-3-58 5-3 1-6 1-8 4-3 3-4 8-5 12a282 282 0 0 0 18 71c1 3 3 6 7 7 6 2 24-2 17-5l-7 1c-12-4-21-49-26-74V29c10-7 23-5 33-6l32-1c17-2 34-9 49-9a265 265 0 0 1 14 32c4 13 10 28 7 38 4-1 6-6 5-9-3-17-10-35-16-50-2-10-4-16-16-16-16 2-31 10-46 11z" fill="#66446b"/><path d="M255 191c1 1 1 1 0 0z" fill="#fdfa27"/><path d="M235 152c-4 0-26 7-30 9-26 10-51 29-76 35-7 3-12-4-18-4-2 8 15 10 20 10 13-6 27-11 39-18 17-11 35-16 52-22 4-2 15-7 13-10z" fill="#4c62f7"/></svg>