<svg xmlns="http://www.w3.org/2000/svg" viewBox="0 0 275 230" version="1"><path d="M160 9c-8 0-14 7-18 3l-4 13h-4c-2-5-3-5-8-3-4 2-12 2-13 7-2 4-4 7-5 0v-9l-8 2c13 0 4 4-3 5l1 6c-10 2-14 5-21 1-4 3-9 5-12 10-5 12-3 24-1 36l2 35c-2-5-6-1-7-5l-5-42c-1-10-4-21 1-30 2-5 10-6 13-1l2-2c-4-3-8-3-12-2-9 4-8 16-8 24 4 18 2 40 7 56 6 7 28 22 20 11 0-17-5-50-9-72 5-9 16-13 25-13 22-1 44-9 63-15l31-6-11-8-16-1z" fill="#a1aff2"/><path d="M134 11l8 1-4 13c-5 3-4-4-8-4l-10 3c-6 0-10 16-12 6v-8c3-8 19-10 26-11z" fill="#6e4375"/><path d="M172 14c2 8-12 4-16 9l-5-5c2-2 3-1 5 0l8-4h8z" fill="#6f4676"/><path d="M138 15c-1 3-1 8-4 2-6-2-15 4-22 5 6-6 18-6 26-7z" fill="#afa0b8"/><path d="M169 26c5 0 7 1 10 4 9 6-5 35-8 43 5-8 20-8 20-9 2-9 0-27 0-37 0-2-2-4-4-5-7 0-10 1-18 4z" fill="#f6f6f6"/><path d="M168 25c-7 0-15 4-30 9l-14 4c-16 5-43 0-50 10-6 4 1 13 0 19v12c0 16 2 30 7 43l3-1c0-11 0-23-5-33-9-17-3-19 5-34 4-1 8 6 11-7 3-4 5-4 8-6 9-3 16-2 25 5 0 2 1 2 3 1 8-6 15-12 24-16 7-3 15-6 21 0l3-1c-4-4-7-5-11-5z" fill="#adbbec"/><path d="M174 30c2 6 1 14-4 19-3 5-31 53-13 37 9-8 15-12 19-20 2-5 9-1 9 4l-3 12c-2 6-7 11-12 15-8 6-18 9-26 14-5 3-12 2-13-4-4-16 6-31 12-43 5-3 3-10-2-4-12 8-20 32-37 31-6 9-23 3-18-11 1-10 7-46 21-39 6-4-3 16-3 25 11 1 16-12 26-17 5-10 15-14 27-20 4-1 13-4 17 1z" fill="#fbb430"/><path d="M97 28l1 5c-5 1-14 6-19 2l-2-1c1-1 1-4 3-2 3 2 8 1 11-1-1 0-9 1-6-1l12-2z" fill="#704777"/><path d="M174 30v7c0 7-6 14-10 20-4 13-17 23-16 36 7-1 10-6 14-11 5-4 12-10 14-16 1-4 13-27 3-36zM92 53c-4 2-4 0-8 1-11 9-15 31-3 40 3 9 2 17 3 27l7 5c10 11 38-11 40-19 1-4-1-13 1-17 3-12 11-21 16-32 0-2-1-4-2-2-12 6-21 17-31 25-17 17-33 15-28-7 2-7 2-14 5-21z" fill="#4ad965"/><path d="M97 27l-13 1c-9 0-18 1-26 5 0 0-1-1-3 5-5 9-2 20-1 30l5 42c1 1 1 5 3 4-2-8 0-16-2-24-1-9 1-19-1-27l2-17 11-11 5-1c1-1 1-4 3-2 3 2 8 1 11-1-14-1-2-1 5-2z" fill="#7e7cfa"/><path d="M77 34c-4 3-9 5-12 10-5 12-3 24-1 36l2 35-4-1c-2-8 0-16-2-24-1-9 1-19-1-27l2-17c3-3 3-7 7-9l2-2a65 65 0 0 1 7-1z" fill="#784d7f"/><path d="M118 39l-10 1c-1 10-6 20-6 31 6-1 29-21 29-24-3-5-2-8-13-8z" fill="#4ad965"/><path d="M186 58c-2 0-4 2-8 6 10 2 2 23-1 26-3 5-8 6-12 10 10-4 21-5 21-17l3-21-3-4z" fill="#f3c4c4"/><path d="M190 90c6 9 17 10 26 15 9 4 15 14 15 23-9 27-57 37-82 38-25-2-98-9-95-41 1-10 9 0 13 4 7 5 12 12 18 17 35 11 72 3 102-12 21-17 6-22-4-38 1-3 7-2 7-6z" fill="#e7e7e7"/><path d="M183 97l11 10c24 23-40 43-50 44-31 0-59 7-79-17-1-4-1-1 2-5 5 6 19 9 21 13 11 6 38 3 47 0 10-7 36-43 48-45z" fill="#d4d4d4"/><path d="M175 98c3 1-9 6-11 7-12 4-23 14-34 19-8 4-42 15-43 19 1 1 25 5 33 4 20-5 38-15 54-29 6-3 8-23 1-20z" fill="#cbcbcb"/><path d="M91 126l-7-5-3 1c1 4 3 12 7 13 15 3 37-14 48-20 9-3 17-6 23-12-32-7-42 26-68 23z" fill="#adbbec"/><path d="M158 6c-6 3-18 3-16 8 6 3 14-5 20-4 7 4 17 2 22 8-19 3-37 9-55 14-14 5-28 5-42 7-7 2-17 5-19 13 3 18 0 36 4 53l6 21c-1 5-18-10-21-13-4-17-3-34-6-51-1-9-3-20 4-27 12-8 34-6 48-8 5-1 3-5 3-5-5-1-19 1-25 2-10 1-21 1-28 8-8 5-8 15-7 23 4 19 2 39 6 56 5 11 25 31 36 31 28-6 52-25 76-37 5-3 26-9 26-15 1-19 12-66-1-76-11-4-20-6-31-8zm24 16c3 0 6 1 8 4 1 20 0 45-5 63-28 15-62 35-90 44-10 3-14-8-15-15-9-24-5-47-6-70 10-7 22-6 34-8 28 0 51-16 74-18z" fill="#74487c"/></svg>